<svg aria-hidden="true" style="position: absolute; width: 0; height: 0; overflow: hidden;" version="1.1" xmlns="http://www.w3.org/2000/svg" xmlns:xlink="http://www.w3.org/1999/xlink">
<defs>
<symbol id="icon-star" viewBox="0 0 32 32">
<path d="M16 0l1.236 12.197 8.168-9.141-6.169 10.593 11.982-2.593-11.217 4.944 11.217 4.944-11.982-2.593 6.169 10.593-8.168-9.14-1.236 12.196-1.236-12.197-8.168 9.141 6.168-10.593-11.98 2.593 11.216-4.944-11.216-4.944 11.981 2.593-6.17-10.593 8.168 9.14 1.237-12.196z"></path>
</symbol>
<symbol id="icon-angol" viewBox="0 0 48 32">
<path stroke-linejoin="miter" stroke-linecap="butt" stroke-miterlimit="4" stroke-width="5.3333" d="M45.333 2.667s-6.221 1.779-11.555 7.112c-5.333 5.333-9.779 14.221-9.779 14.221s-4.445-8.888-9.779-14.221c-5.333-5.333-11.555-7.112-11.555-7.112"></path>
</symbol>
</defs>
</svg>
